<?xml version="1.0" encoding="UTF-8"?>
<svg id="Layer_1" xmlns="http://www.w3.org/2000/svg" version="1.1" viewBox="0 0 499.6 131.39">
  <!-- Generator: Adobe Illustrator 30.3.0, SVG Export Plug-In . SVG Version: 2.1.3 Build 182)  -->
  <defs>
    <style>
      .st0 {
        fill: #ebebeb;
      }

      .st1, .st2 {
        fill: #ff8c00;
      }

      .st2 {
        font-family: Helvetica-Bold, Helvetica;
        font-size: 12px;
        font-weight: 700;
        letter-spacing: .55em;
      }

      .st3 {
        fill: none;
        stroke: #ff8c00;
        stroke-width: 5px;
      }
    </style>
  </defs>
  <circle class="st3" cx="75.56" cy="65.69" r="49.76"/>
  <path class="st1" d="M79.29,82.63v-8.38c0-.67-.18-1.18-.55-1.52-.37-.34-.95-.51-1.75-.51h-8.84c-4.79,0-8.06-1.07-9.81-3.22-1.75-2.15-2.62-4.94-2.62-8.38v-12.16c0-3.44,1.01-6.2,3.04-8.29,2.03-2.09,5.49-3.13,10.41-3.13h12.62c4.91,0,8.38,1.04,10.41,3.13,2.03,2.09,3.04,4.85,3.04,8.29v7.09h-16.12v-4.97c0-.68-.18-1.18-.55-1.52-.37-.34-.95-.51-1.75-.51h-2.67c-.8,0-1.38.17-1.75.51-.37.34-.55.84-.55,1.52v8.75c0,.68.18,1.18.55,1.52.37.34.95.51,1.75.51h8.66c4.79,0,8.09,1.01,9.9,3.04,1.81,2.03,2.72,4.76,2.72,8.2v12.16c0,3.44-1.01,6.2-3.04,8.29-2.03,2.09-5.5,3.13-10.41,3.13h-12.53c-4.91,0-8.4-1.04-10.45-3.13-2.06-2.09-3.08-4.85-3.08-8.29v-7.09h16.12v4.97c0,.68.18,1.18.55,1.52.37.34.95.51,1.75.51h2.67c.8,0,1.38-.17,1.75-.51.37-.34.55-.84.55-1.52Z"/>
  <g>
    <path class="st0" d="M172,81.72v-8.38c0-.67-.18-1.18-.55-1.52-.37-.34-.95-.51-1.75-.51h-8.84c-4.79,0-8.06-1.07-9.81-3.22-1.75-2.15-2.62-4.94-2.62-8.38v-12.16c0-3.44,1.01-6.2,3.04-8.29,2.03-2.09,5.49-3.13,10.41-3.13h12.62c4.91,0,8.38,1.04,10.41,3.13,2.03,2.09,3.04,4.85,3.04,8.29v7.09h-16.12v-4.97c0-.68-.18-1.18-.55-1.52-.37-.34-.95-.51-1.75-.51h-2.67c-.8,0-1.38.17-1.75.51-.37.34-.55.84-.55,1.52v8.75c0,.68.18,1.18.55,1.52.37.34.95.51,1.75.51h8.66c4.79,0,8.09,1.01,9.9,3.04,1.81,2.03,2.72,4.76,2.72,8.2v12.16c0,3.44-1.01,6.2-3.04,8.29-2.03,2.09-5.5,3.13-10.41,3.13h-12.53c-4.91,0-8.4-1.04-10.45-3.13-2.06-2.09-3.08-4.85-3.08-8.29v-7.09h16.12v4.97c0,.68.18,1.18.55,1.52.37.34.95.51,1.75.51h2.67c.8,0,1.38-.17,1.75-.51.37-.34.55-.84.55-1.52Z"/>
    <path class="st0" d="M230.2,36.13v11.51h-38.87v-11.51h38.87ZM202.66,41.66h16.12v53.6h-16.12v-53.6Z"/>
    <path class="st0" d="M280.67,95.26h-16.21l-8.84-41.54-9.12,41.54h-15.84l15.2-59.13h19.62l15.2,59.13ZM270.54,75v11.42h-29.56v-11.42h29.56Z"/>
    <path class="st0" d="M311.34,36.13h14.74v59.13h-13.81l-13.17-31.04v31.04h-14.74v-59.13h13.82l13.17,31.59v-31.59Z"/>
    <path class="st0" d="M334.36,36.13h16.12v59.13h-16.12v-59.13ZM358.95,60.81v-12.07c0-.67-.18-1.18-.55-1.52-.37-.34-.95-.51-1.75-.51h-16.95v-10.59h21.83c4.91,0,8.4,1.04,10.45,3.13,2.06,2.09,3.09,4.85,3.09,8.29v13.26h-16.12ZM358.95,82.64v-23.02h16.12v24.22c0,3.44-1.03,6.2-3.09,8.29-2.06,2.09-5.54,3.13-10.45,3.13h-21.83v-10.59h16.95c.8,0,1.38-.17,1.75-.51.37-.34.55-.84.55-1.52Z"/>
    <path class="st0" d="M382.16,36.13h27.08c4.91,0,8.4,1.04,10.45,3.13,2.06,2.09,3.08,4.85,3.08,8.29v7.55c0,2.39-.29,4.48-.88,6.26-.58,1.78-1.77,3.16-3.55,4.14,1.78.8,2.96,2,3.55,3.59.58,1.6.88,3.56.88,5.89v8.84c0,3.44-1.03,6.2-3.08,8.29-2.06,2.09-5.54,3.13-10.45,3.13h-27.08v-59.13ZM406.93,58.33v-9.58c0-.67-.18-1.18-.55-1.52-.37-.34-.95-.51-1.75-.51h-6.63v13.63h6.63c.8,0,1.38-.17,1.75-.51.37-.34.55-.84.55-1.52ZM406.93,82.64v-9.67c0-.67-.18-1.18-.55-1.52-.37-.34-.95-.51-1.75-.51h-6.63v13.72h6.63c.8,0,1.38-.17,1.75-.51.37-.34.55-.84.55-1.52Z"/>
    <path class="st0" d="M457.31,78.77h-13.91l-17.41-42.64h16.49l7.74,24.96,7.18-24.96h16.39l-16.49,42.64ZM442.3,70.21h16.12v25.05h-16.12v-25.05Z"/>
  </g>
  <text class="st2" transform="translate(148.96 29.59)"><tspan x="0" y="0">CUE LIGHT</tspan></text>
</svg>