<?xml version="1.0" encoding="UTF-8"?>
<svg id="Layer_1" xmlns="http://www.w3.org/2000/svg" version="1.1" viewBox="0 0 131.39 131.39">
  <!-- Generator: Adobe Illustrator 30.3.0, SVG Export Plug-In . SVG Version: 2.1.3 Build 182)  -->
  <defs>
    <style>
      .st0 {
        fill: #ff8c00;
      }

      .st1 {
        fill: #141414;
      }

      .st2 {
        fill: none;
        stroke: #ff8c00;
        stroke-width: 5px;
      }
    </style>
  </defs>
  <rect class="st1" width="131.39" height="131.39"/>
  <circle class="st2" cx="65.69" cy="65.69" r="49.76"/>
  <path class="st0" d="M69.42,82.63v-8.38c0-.67-.18-1.18-.55-1.52-.37-.34-.95-.51-1.75-.51h-8.84c-4.79,0-8.06-1.07-9.81-3.22-1.75-2.15-2.62-4.94-2.62-8.38v-12.16c0-3.44,1.01-6.2,3.04-8.29,2.03-2.09,5.49-3.13,10.41-3.13h12.62c4.91,0,8.38,1.04,10.41,3.13,2.03,2.09,3.04,4.85,3.04,8.29v7.09h-16.12v-4.97c0-.68-.18-1.18-.55-1.52-.37-.34-.95-.51-1.75-.51h-2.67c-.8,0-1.38.17-1.75.51-.37.34-.55.84-.55,1.52v8.75c0,.68.18,1.18.55,1.52.37.34.95.51,1.75.51h8.66c4.79,0,8.09,1.01,9.9,3.04,1.81,2.03,2.72,4.76,2.72,8.2v12.16c0,3.44-1.01,6.2-3.04,8.29-2.03,2.09-5.5,3.13-10.41,3.13h-12.53c-4.91,0-8.4-1.04-10.45-3.13-2.06-2.09-3.08-4.85-3.08-8.29v-7.09h16.12v4.97c0,.68.18,1.18.55,1.52.37.34.95.51,1.75.51h2.67c.8,0,1.38-.17,1.75-.51.37-.34.55-.84.55-1.52Z"/>
</svg>